<?xml version="1.0" standalone="no"?>
<!DOCTYPE svg PUBLIC "-//W3C//DTD SVG 20010904//EN"
 "http://www.w3.org/TR/2001/REC-SVG-20010904/DTD/svg10.dtd">
<svg version="1.0" xmlns="http://www.w3.org/2000/svg"
 width="100.000000pt" height="100.000000pt" viewBox="0 0 100.000000 100.000000"
 preserveAspectRatio="xMidYMid meet">

<g transform="translate(0.000000,100.000000) scale(0.100000,-0.100000)"
fill="#000000" stroke="none">
<path d="M817 980 c-11 -13 -13 -22 -5 -26 5 -4 13 -3 17 2 6 9 27 14 67 17
36 3 16 24 -24 25 -26 1 -43 -4 -55 -18z"/>
<path d="M991 964 c0 -11 3 -14 6 -6 3 7 2 16 -1 19 -3 4 -6 -2 -5 -13z"/>
<path d="M597 953 c-10 -9 -9 -23 2 -23 5 0 11 7 15 15 5 15 -5 20 -17 8z"/>
<path d="M876 952 c-3 -6 6 -20 20 -31 24 -19 21 -26 -11 -22 -5 1 1 -8 14
-19 13 -11 20 -21 17 -21 -3 -1 -12 -2 -18 -3 -8 -1 -12 -13 -11 -29 1 -15 -2
-25 -8 -22 -5 4 -9 0 -10 -7 0 -7 -2 -30 -5 -50 -3 -21 -3 -38 0 -38 2 0 26
18 52 40 27 22 57 40 66 40 15 0 18 9 18 50 0 28 -5 50 -10 50 -7 0 -7 6 0 19
13 25 13 31 -2 31 -6 0 -8 -3 -5 -6 10 -10 -13 -45 -24 -38 -6 3 -6 10 -1 17
14 19 23 49 12 42 -6 -3 -10 -14 -10 -23 0 -15 -2 -15 -10 -2 -8 12 -10 12
-11 -5 0 -11 -3 -14 -6 -7 -2 6 -9 12 -15 12 -6 0 -16 7 -23 17 -8 10 -14 12
-19 5z m114 -82 c0 -5 -2 -10 -4 -10 -3 0 -8 5 -11 10 -3 6 -1 10 4 10 6 0 11
-4 11 -10z"/>
<path d="M613 900 c-13 -5 -23 -12 -23 -15 0 -9 16 -5 36 10 22 16 19 18 -13
5z"/>
<path d="M392 888 c-17 -17 -15 -35 4 -42 9 -4 13 -2 8 5 -4 7 -2 10 5 8 7 -3
11 -7 9 -11 -5 -10 34 -48 43 -42 5 3 9 13 9 24 0 10 8 21 17 25 14 5 8 10
-26 26 -51 22 -53 23 -69 7z"/>
<path d="M512 828 c-7 -7 -12 -17 -12 -24 0 -6 -7 -25 -15 -40 -18 -35 -19
-64 -2 -65 6 0 20 -2 29 -4 23 -4 38 39 34 95 -4 47 -14 58 -34 38z"/>
<path d="M301 747 c-12 -19 -21 -40 -21 -46 0 -12 47 -34 59 -27 10 7 5 100
-7 104 -5 1 -19 -12 -31 -31z"/>
<path d="M205 509 c-4 -6 -5 -13 -2 -16 7 -7 27 6 27 18 0 12 -17 12 -25 -2z"/>
<path d="M430 505 c0 -11 12 -15 45 -15 33 0 45 4 45 15 0 11 -12 15 -45 15
-33 0 -45 -4 -45 -15z"/>
<path d="M600 510 c0 -5 5 -10 10 -10 6 0 10 5 10 10 0 6 -4 10 -10 10 -5 0
-10 -4 -10 -10z"/>
<path d="M840 511 c0 -5 14 -11 30 -13 20 -3 30 0 30 9 0 8 -12 13 -30 13 -16
0 -30 -4 -30 -9z"/>
<path d="M0 501 c0 -6 22 -11 50 -11 65 0 65 14 0 18 -30 2 -50 -1 -50 -7z"/>
<path d="M710 310 c19 -13 30 -13 30 0 0 6 -10 10 -22 10 -19 0 -20 -2 -8 -10z"/>
<path d="M646 266 c8 -21 81 -69 93 -61 6 3 11 17 11 30 0 25 -3 27 -77 39
-25 4 -31 2 -27 -8z"/>
<path d="M855 257 c-2 -7 -6 -39 -9 -72 -3 -33 -8 -78 -11 -100 -6 -36 -5 -38
8 -22 11 13 30 17 86 17 l71 0 0 90 0 90 -52 1 c-29 0 -61 2 -71 4 -10 2 -20
-2 -22 -8z"/>
<path d="M539 210 c-25 -25 -53 -57 -62 -72 -18 -29 -54 -45 -68 -31 -5 5 1
24 16 45 13 19 21 38 18 42 -4 3 -105 6 -225 6 l-218 0 1 -100 2 -100 423 0
c233 0 424 3 424 8 0 16 -16 29 -41 35 -16 4 -68 50 -125 110 l-99 103 -46
-46z m-416 -95 c-1 -5 -17 -12 -35 -15 -43 -6 -45 -34 -3 -38 30 -4 48 -19 39
-34 -6 -9 -65 -11 -88 -2 -20 8 -23 90 -3 98 20 8 92 2 90 -9z m124 -2 c3 -7
-9 -13 -29 -15 -47 -4 -52 -35 -6 -40 21 -2 33 -8 33 -18 0 -11 -12 -15 -45
-15 l-45 0 -3 39 c-5 59 2 68 50 64 23 -2 43 -8 45 -15z m121 5 c7 -7 12 -25
12 -40 0 -25 -3 -28 -34 -28 -18 0 -39 -7 -46 -15 -18 -22 -30 -9 -30 34 0 45
14 61 55 61 17 0 36 -5 43 -12z m77 -58 c-8 -13 -45 -13 -45 0 0 6 12 10 26
10 14 0 23 -4 19 -10z m55 6 c0 -2 -9 -6 -20 -9 -11 -3 -20 -1 -20 4 0 5 9 9
20 9 11 0 20 -2 20 -4z m218 -3 c-10 -2 -26 -2 -35 0 -10 3 -2 5 17 5 19 0 27
-2 18 -5z"/>
<path d="M310 90 c0 -5 7 -10 15 -10 8 0 15 5 15 10 0 6 -7 10 -15 10 -8 0
-15 -4 -15 -10z"/>
<path d="M892 38 c3 -7 13 -15 24 -17 10 -2 22 -8 25 -13 13 -20 30 2 19 23
-12 22 -75 28 -68 7z"/>
</g>
</svg>
